HIERARCHY
ROOT Hips
{
	OFFSET 0.00000 0.00000 0.00000
	CHANNELS 6 Xposition Yposition Zposition Zrotation Yrotation Xrotation 
	JOINT LHipJoint
	{
		OFFSET 0 0 0
		CHANNELS 3 Zrotation Yrotation Xrotation
		JOINT LeftHip
		{
			OFFSET 1.84395 -1.68683 0.74144
			CHANNELS 3 Zrotation Yrotation Xrotation
			JOINT LeftKnee
			{
				OFFSET 2.27037 -6.23779 0.00000
				CHANNELS 3 Zrotation Yrotation Xrotation
				JOINT LeftAnkle
				{
					OFFSET 2.56918 -7.05877 0.00000
					CHANNELS 3 Zrotation Yrotation Xrotation
					JOINT LeftToe
					{
						OFFSET 0.22276 -0.61202 1.71784
						CHANNELS 3 Zrotation Yrotation Xrotation
						End Site
						{
							OFFSET 0.00000 -0.00000 0.91613
						}
					}
				}
			}
		}
	}
	JOINT RHipJoint
	{
		OFFSET 0 0 0
		CHANNELS 3 Zrotation Yrotation Xrotation
		JOINT RightHip
		{
			OFFSET -1.76833 -1.68684 0.74144
			CHANNELS 3 Zrotation Yrotation Xrotation
			JOINT RightKnee
			{
				OFFSET -2.49360 -6.85110 0.00000
				CHANNELS 3 Zrotation Yrotation Xrotation
				JOINT RightAnkle
				{
					OFFSET -2.55538 -7.02085 0.00000
					CHANNELS 3 Zrotation Yrotation Xrotation
					JOINT RightToe
					{
						OFFSET -0.21516 -0.59115 1.68050
						CHANNELS 3 Zrotation Yrotation Xrotation
						End Site
						{
							OFFSET -0.00000 -0.00000 0.89604
						}
					}
				}
			}
		}
	}
	JOINT lowerback
	{
		OFFSET 0 0 0
		CHANNELS 3 Zrotation Yrotation Xrotation
		JOINT Chest
		{
			OFFSET 0.06382 1.72312 -0.19613
			CHANNELS 3 Zrotation Yrotation Xrotation
			JOINT Chest2
			{
				OFFSET -0.00055 1.73507 0.23859
				CHANNELS 3 Zrotation Yrotation Xrotation
				JOINT lowerneck
				{
					OFFSET 0 0 0
					CHANNELS 3 Zrotation Yrotation Xrotation
					JOINT Neck
					{
						OFFSET 0.03638 1.65562 0.09633
						CHANNELS 3 Zrotation Yrotation Xrotation
						JOINT Head
						{
							OFFSET 0.06388 1.62807 -0.32386
							CHANNELS 3 Zrotation Yrotation Xrotation
							End Site
							{
								OFFSET 0.00995 1.67644 -0.12021
							}
						}
					}
				}
				JOINT LeftCollar
				{
					OFFSET 0 0 0
					CHANNELS 3 Zrotation Yrotation Xrotation
					JOINT LeftShoulder
					{
						OFFSET 3.09648 1.42991 0.28122
CHANNELS 3 Zrotation Xrotation Yrotation
						JOINT LeftElbow
						{
OFFSET 0 -5.118780 -0.000000
CHANNELS 3 Zrotation Xrotation Yrotation
							JOINT LeftWrist
							{
OFFSET 0 -3.599710 0.000000
CHANNELS 3 Zrotation Xrotation Yrotation
								JOINT lhand
								{
									OFFSET 0 0 0
CHANNELS 3 Zrotation Xrotation Yrotation
									JOINT LFingers
									{
OFFSET 0 -0.628770 0.000000
CHANNELS 3 Zrotation Xrotation Yrotation
										End Site
										{
OFFSET 0 -0.506930 0.000000
										}
									}
								}
								JOINT LThumb
								{
OFFSET 0 0.000000 0.000000
CHANNELS 3 Zrotation Xrotation Yrotation
									End Site
									{
OFFSET 0 -0.514670 0.514670
									}
								}
							}
						}
					}
				}
				JOINT RightCollar
				{
					OFFSET 0 0 0
					CHANNELS 3 Zrotation Yrotation Xrotation
					JOINT RightShoulder
					{
						OFFSET -3.33565 1.14597 0.05047
CHANNELS 3 Zrotation Xrotation Yrotation
						JOINT RightElbow
						{
OFFSET 0 -5.490200 0.000000
CHANNELS 3 Zrotation Xrotation Yrotation
							JOINT RightWrist
							{
OFFSET 0 -3.206590 -0.000000
CHANNELS 3 Zrotation Xrotation Yrotation
								JOINT rhand
								{
									OFFSET 0 0 0
CHANNELS 3 Zrotation Xrotation Yrotation
									JOINT RFingers
									{
OFFSET 0 -0.691880 0.000000
CHANNELS 3 Zrotation Xrotation Yrotation
										End Site
										{
OFFSET 0 -0.557810 0.000000
										}
									}
								}
								JOINT RThumb
								{
OFFSET 0 0.000000 0.000000
CHANNELS 3 Zrotation Xrotation Yrotation
									End Site
									{
OFFSET 0 -0.566330 0.566330
									}
								}
							}
						}
					}
				}
			}
		}
	}
}
MOTION
Frames: 8
Frame Time: 0.008333333333333333
0.942966 17.558340 8.676626 -8.126055 7.397487 5.798965 0.000000 0.000000 0.000000 -14.664265 -33.825106 14.081972 0.027585 -1.071928 -2.946849 -3.873597 33.047498 -21.337804 0.024388 -1.009121 -2.773934 0.000000 0.000000 0.000000 25.871366 20.747246 3.824717 -0.142110 -2.429437 6.693900 1.028624 -23.465992 -25.423379 -0.206378 -2.925202 8.070460 9.301797 4.543565 3.313870 -0.594566 6.340628 1.159608 -5.929364 3.232669 0.430249 9.948039 8.109788 -0.270128 -3.824344 11.293760 20.434810 -2.105427 5.929710 7.098476 0.000000 0.000000 0.000000 28.732736 -25.033109 -68.815632 155.816287 -35.357977 112.187340 -53.667690 -54.063835 5.722714 0.000000 0.000000 0.000000 -7.125000 0.000000 0.000000 -42.423846 4.787525 -60.875111 0.000000 0.000000 0.000000 -2.718119 19.427940 17.931070 -151.245292 -39.801797 -109.396730 18.217606 -54.849636 59.874947 0.000000 0.000000 0.000000 7.125000 0.000000 0.000000 97.531223 66.362816 -72.542730
0.929425 17.561756 8.649193 -8.347538 7.558368 5.729221 0.000000 0.000000 0.000000 -14.115492 -33.581168 13.673455 0.026883 -1.058130 -2.908856 -3.820949 32.780900 -20.754995 0.037401 -1.248355 -3.432555 0.000000 0.000000 0.000000 26.064446 20.524701 3.473961 -0.153354 -2.523473 6.954726 1.020938 -23.356897 -25.280288 -0.192700 -2.826635 7.796504 9.607948 4.530822 3.623211 -0.682769 6.347156 1.532378 -6.197262 3.265768 0.693657 10.855570 8.459340 0.162609 -4.586754 11.953600 21.316922 -2.438931 6.270565 7.471599 0.000000 0.000000 0.000000 29.129139 -26.347775 -68.818242 155.673788 -35.507374 112.104757 -56.123857 -55.415236 4.866768 0.000000 0.000000 0.000000 -7.125000 0.000000 0.000000 -42.613169 1.090484 -65.873026 0.000000 0.000000 0.000000 -2.405634 19.554848 17.221660 -151.276136 -39.774133 -109.416425 7.239491 -45.132965 59.212986 0.000000 0.000000 0.000000 7.125000 0.000000 0.000000 92.773129 69.843451 -71.450466
0.914194 17.560109 8.631931 -8.484500 7.809644 5.730748 0.000000 0.000000 0.000000 -13.815039 -33.726508 13.481208 0.026028 -1.041823 -2.863951 -3.829306 32.759112 -20.455921 0.052690 -1.481493 -4.074765 0.000000 0.000000 0.000000 26.222502 20.514403 3.327618 -0.157008 -2.553310 7.037596 0.998799 -23.366137 -25.503701 -0.228269 -3.074818 8.487256 9.777361 4.543836 3.729252 -0.786525 6.365882 1.844974 -6.390293 3.305105 0.997308 11.639912 8.710576 0.531258 -4.992761 12.457636 22.722517 -2.643560 6.559765 8.004445 0.000000 0.000000 0.000000 29.380774 -27.333379 -68.979312 155.729949 -35.448496 112.137416 -57.216603 -55.839424 4.529977 0.000000 0.000000 0.000000 -7.125000 0.000000 0.000000 -42.738229 -0.864353 -68.285099 0.000000 0.000000 0.000000 -1.887320 19.744217 16.344701 -151.550537 -39.526695 -109.591444 2.240090 -41.563497 58.692113 0.000000 0.000000 0.000000 7.125000 0.000000 0.000000 90.209765 71.472346 -70.643065
0.902786 17.559610 8.621779 -8.572139 8.027112 5.856326 0.000000 0.000000 0.000000 -13.786382 -34.426825 13.669482 0.027667 -1.073814 -2.951870 -3.973514 33.262165 -20.736604 0.052094 -1.473418 -4.052573 0.000000 0.000000 0.000000 26.286622 20.537453 3.202031 -0.152889 -2.519171 6.942845 0.988437 -23.409861 -25.683417 -0.267604 -3.327864 9.192845 9.917233 4.627314 3.551749 -0.937074 6.449285 2.133620 -6.588994 3.384764 1.450050 12.529214 8.865720 0.495861 -5.381611 12.824361 24.655713 -2.848543 6.792541 8.804805 0.000000 0.000000 0.000000 29.495110 -28.162273 -69.249388 155.740895 -35.437047 112.143716 -58.323472 -56.401510 4.094762 0.000000 0.000000 0.000000 -7.125000 0.000000 0.000000 -42.910550 -2.898103 -70.716851 0.000000 0.000000 0.000000 -1.251500 19.775619 15.500806 -151.620082 -39.463618 -109.635730 0.980954 -41.436554 56.481306 0.000000 0.000000 0.000000 7.125000 0.000000 0.000000 83.302435 71.737269 -63.832322
0.900297 17.558002 8.615222 -8.625893 8.398027 6.036082 0.000000 0.000000 0.000000 -13.682347 -35.067816 13.615194 0.027603 -1.072817 -2.949206 -4.031308 33.478686 -20.963978 0.044813 -1.365798 -3.755873 0.000000 0.000000 0.000000 26.288810 20.583903 3.078478 -0.146139 -2.463630 6.788847 1.005685 -23.623495 -25.939571 -0.264878 -3.310848 9.145534 10.208703 4.652147 3.334320 -1.120792 6.459387 2.317642 -6.910574 3.424042 1.824854 13.646153 8.904794 0.735776 -5.937324 13.103257 26.534221 -3.177044 7.003585 9.587825 0.000000 0.000000 0.000000 29.580836 -28.901722 -69.567259 155.696668 -35.483350 112.118091 -59.264649 -57.328951 3.636447 0.000000 0.000000 0.000000 -7.125000 0.000000 0.000000 -43.094470 -4.633905 -72.739614 0.000000 0.000000 0.000000 -0.467105 19.837633 14.171391 -151.619537 -39.464112 -109.635375 3.484703 -43.277964 55.418019 0.000000 0.000000 0.000000 7.125000 0.000000 0.000000 81.042880 70.708170 -60.358122
0.897931 17.557601 8.614545 -8.583563 8.716638 6.116616 0.000000 0.000000 0.000000 -13.486995 -35.009591 13.212049 0.026481 -1.049596 -2.885224 -3.959686 33.167712 -20.405072 0.060407 -1.585811 -4.362192 0.000000 0.000000 0.000000 26.266383 20.667541 3.176599 -0.137493 -2.389959 6.584771 1.014636 -23.844977 -26.285660 -0.299243 -3.517395 9.722637 10.380822 4.651677 3.212682 -1.330219 6.447449 2.416204 -7.209407 3.440527 2.041184 14.635774 9.054399 0.448466 -5.906176 13.409320 29.239620 -3.251712 7.271235 10.776943 0.000000 0.000000 0.000000 29.710197 -29.221535 -69.957779 155.735101 -35.443097 112.140384 -58.934306 -57.149161 3.726294 0.000000 0.000000 0.000000 -7.125000 0.000000 0.000000 -43.020294 -3.931824 -71.952726 0.000000 0.000000 0.000000 0.389247 19.895592 12.778596 -151.698090 -39.392736 -109.685305 9.513525 -47.712779 56.515261 0.000000 0.000000 0.000000 7.125000 0.000000 0.000000 86.468137 68.866587 -63.527427
0.892499 17.557305 8.618149 -8.627001 8.660072 6.053880 0.000000 0.000000 0.000000 -13.515285 -35.035155 13.382969 0.026843 -1.057427 -2.906894 -3.978892 33.251484 -20.556891 0.052282 -1.475896 -4.059239 0.000000 0.000000 0.000000 26.405691 20.754974 3.381572 -0.132542 -2.346706 6.464957 1.039301 -23.944625 -26.259113 -0.305371 -3.552902 9.822042 10.638064 4.746708 3.374238 -1.555029 6.600621 2.421847 -7.599988 3.527480 2.048010 15.988678 9.082039 0.258143 -6.490250 13.695650 31.725412 -3.625917 7.527311 12.015660 0.000000 0.000000 0.000000 29.825576 -29.276361 -70.277314 155.783688 -35.392173 112.168502 -59.243207 -57.162029 3.738124 0.000000 0.000000 0.000000 -7.125000 0.000000 0.000000 -43.097234 -4.699384 -72.789092 0.000000 0.000000 0.000000 1.363064 19.964637 11.955622 -151.746189 -39.348864 -109.715775 10.259324 -48.499058 56.515019 0.000000 0.000000 0.000000 7.125000 0.000000 0.000000 86.755760 68.617056 -63.520927
0.888735 17.556180 8.625560 -8.695840 8.580863 6.054955 0.000000 0.000000 0.000000 -13.410698 -34.971598 13.420090 0.027745 -1.074571 -2.954015 -3.976639 33.254248 -20.621404 0.052397 -1.477575 -4.063918 0.000000 0.000000 0.000000 26.558284 20.930302 3.531494 -0.129652 -2.320986 6.393727 1.041072 -24.010220 -26.370519 -0.315527 -3.610957 9.984692 10.894731 4.863708 3.372434 -1.758716 6.767620 2.371909 -7.955424 3.620495 2.090760 15.686053 9.215520 -0.404154 -4.935840 13.579522 34.411505 -2.954093 7.624321 13.135389 0.000000 0.000000 0.000000 29.823572 -29.303037 -70.611076 155.809045 -35.365570 112.183187 -59.307969 -57.172050 3.695310 0.000000 0.000000 0.000000 -7.125000 0.000000 0.000000 -43.110768 -4.809232 -72.917775 0.000000 0.000000 0.000000 2.398775 19.973731 11.206246 -151.782898 -39.315340 -109.739019 15.863816 -53.870818 59.599682 0.000000 0.000000 0.000000 7.125000 0.000000 0.000000 96.150015 67.090761 -71.862285
